<mxfile host="Electron" agent="Mozilla/5.0 (X11; Linux x86_64) AppleWebKit/537.36 (KHTML, like Gecko) draw.io/26.0.16 Chrome/132.0.6834.196 Electron/34.2.0 Safari/537.36" version="26.0.16">
  <diagram name="Page-1" id="db4RK4HyfA7i8QIYpdFv">
    <mxGraphModel dx="1193" dy="1761" grid="1" gridSize="10" guides="1" tooltips="1" connect="1" arrows="1" fold="1" page="1" pageScale="1" pageWidth="1100" pageHeight="850" math="0" shadow="0">
      <root>
        <mxCell id="0" />
        <mxCell id="1" parent="0" />
        <mxCell id="gCFO4Be3ib_-aLsYhRZ6-61" value="" style="whiteSpace=wrap;html=1;dashed=1;" vertex="1" parent="1">
          <mxGeometry x="680" y="250" width="1370" height="380" as="geometry" />
        </mxCell>
        <mxCell id="gCFO4Be3ib_-aLsYhRZ6-6" value="" style="whiteSpace=wrap;html=1;dashed=1;" vertex="1" parent="1">
          <mxGeometry x="405" y="-240" width="1020" height="390" as="geometry" />
        </mxCell>
        <mxCell id="gCFO4Be3ib_-aLsYhRZ6-4" style="edgeStyle=orthogonalEdgeStyle;rounded=0;orthogonalLoop=1;jettySize=auto;html=1;entryX=0;entryY=0.5;entryDx=0;entryDy=0;" edge="1" parent="1" source="gCFO4Be3ib_-aLsYhRZ6-2" target="gCFO4Be3ib_-aLsYhRZ6-3">
          <mxGeometry relative="1" as="geometry" />
        </mxCell>
        <mxCell id="gCFO4Be3ib_-aLsYhRZ6-2" value="recipe.yaml" style="shape=ext;double=1;whiteSpace=wrap;html=1;aspect=fixed;" vertex="1" parent="1">
          <mxGeometry x="275" y="-170" width="110" height="110" as="geometry" />
        </mxCell>
        <mxCell id="gCFO4Be3ib_-aLsYhRZ6-10" style="edgeStyle=orthogonalEdgeStyle;rounded=0;orthogonalLoop=1;jettySize=auto;html=1;entryX=0;entryY=0.5;entryDx=0;entryDy=0;" edge="1" parent="1" source="gCFO4Be3ib_-aLsYhRZ6-3" target="gCFO4Be3ib_-aLsYhRZ6-9">
          <mxGeometry relative="1" as="geometry" />
        </mxCell>
        <mxCell id="gCFO4Be3ib_-aLsYhRZ6-3" value="Parser" style="whiteSpace=wrap;html=1;" vertex="1" parent="1">
          <mxGeometry x="425" y="-145" width="120" height="60" as="geometry" />
        </mxCell>
        <mxCell id="gCFO4Be3ib_-aLsYhRZ6-7" value="&lt;p style=&quot;margin:0px;margin-top:4px;text-align:center;&quot;&gt;&lt;b&gt;Service&lt;/b&gt;&lt;/p&gt;" style="verticalAlign=top;align=left;overflow=fill;html=1;whiteSpace=wrap;" vertex="1" parent="1">
          <mxGeometry x="935" y="-30" width="140" height="45" as="geometry" />
        </mxCell>
        <mxCell id="gCFO4Be3ib_-aLsYhRZ6-15" style="edgeStyle=orthogonalEdgeStyle;rounded=0;orthogonalLoop=1;jettySize=auto;html=1;" edge="1" parent="1" source="gCFO4Be3ib_-aLsYhRZ6-9" target="gCFO4Be3ib_-aLsYhRZ6-12">
          <mxGeometry relative="1" as="geometry" />
        </mxCell>
        <mxCell id="gCFO4Be3ib_-aLsYhRZ6-17" value="creates" style="edgeLabel;html=1;align=center;verticalAlign=middle;resizable=0;points=[];" vertex="1" connectable="0" parent="gCFO4Be3ib_-aLsYhRZ6-15">
          <mxGeometry x="0.4841" y="-2" relative="1" as="geometry">
            <mxPoint as="offset" />
          </mxGeometry>
        </mxCell>
        <mxCell id="gCFO4Be3ib_-aLsYhRZ6-16" style="edgeStyle=orthogonalEdgeStyle;rounded=0;orthogonalLoop=1;jettySize=auto;html=1;entryX=0;entryY=0.5;entryDx=0;entryDy=0;" edge="1" parent="1" source="gCFO4Be3ib_-aLsYhRZ6-9" target="gCFO4Be3ib_-aLsYhRZ6-13">
          <mxGeometry relative="1" as="geometry" />
        </mxCell>
        <mxCell id="gCFO4Be3ib_-aLsYhRZ6-18" value="creates" style="edgeLabel;html=1;align=center;verticalAlign=middle;resizable=0;points=[];" vertex="1" connectable="0" parent="gCFO4Be3ib_-aLsYhRZ6-16">
          <mxGeometry x="0.5056" y="-2" relative="1" as="geometry">
            <mxPoint as="offset" />
          </mxGeometry>
        </mxCell>
        <mxCell id="gCFO4Be3ib_-aLsYhRZ6-9" value="Scheduler" style="whiteSpace=wrap;html=1;" vertex="1" parent="1">
          <mxGeometry x="565" y="-145" width="120" height="60" as="geometry" />
        </mxCell>
        <mxCell id="gCFO4Be3ib_-aLsYhRZ6-12" value="server1_sbatch.&lt;span style=&quot;background-color: transparent; color: light-dark(rgb(0, 0, 0), rgb(255, 255, 255));&quot;&gt;sh&lt;/span&gt;" style="whiteSpace=wrap;html=1;" vertex="1" parent="1">
          <mxGeometry x="755" y="-190" width="120" height="60" as="geometry" />
        </mxCell>
        <mxCell id="gCFO4Be3ib_-aLsYhRZ6-13" value="client1_sbatch&lt;span style=&quot;background-color: transparent; color: light-dark(rgb(0, 0, 0), rgb(255, 255, 255));&quot;&gt;.&lt;/span&gt;&lt;span style=&quot;background-color: transparent; color: light-dark(rgb(0, 0, 0), rgb(255, 255, 255));&quot;&gt;sh&lt;/span&gt;" style="whiteSpace=wrap;html=1;" vertex="1" parent="1">
          <mxGeometry x="755" y="-97.5" width="120" height="60" as="geometry" />
        </mxCell>
        <mxCell id="gCFO4Be3ib_-aLsYhRZ6-24" value="&lt;p style=&quot;margin:0px;margin-top:4px;text-align:center;&quot;&gt;&lt;b&gt;Service&lt;/b&gt;&lt;/p&gt;" style="verticalAlign=top;align=left;overflow=fill;html=1;whiteSpace=wrap;" vertex="1" parent="1">
          <mxGeometry x="945" y="-20" width="140" height="45" as="geometry" />
        </mxCell>
        <mxCell id="gCFO4Be3ib_-aLsYhRZ6-30" style="edgeStyle=orthogonalEdgeStyle;rounded=0;orthogonalLoop=1;jettySize=auto;html=1;exitX=0.75;exitY=1;exitDx=0;exitDy=0;entryX=0.5;entryY=0;entryDx=0;entryDy=0;" edge="1" parent="1" source="gCFO4Be3ib_-aLsYhRZ6-19" target="gCFO4Be3ib_-aLsYhRZ6-27">
          <mxGeometry relative="1" as="geometry" />
        </mxCell>
        <mxCell id="gCFO4Be3ib_-aLsYhRZ6-31" value="creates" style="edgeLabel;html=1;align=center;verticalAlign=middle;resizable=0;points=[];" vertex="1" connectable="0" parent="gCFO4Be3ib_-aLsYhRZ6-30">
          <mxGeometry x="0.0943" y="-3" relative="1" as="geometry">
            <mxPoint as="offset" />
          </mxGeometry>
        </mxCell>
        <mxCell id="gCFO4Be3ib_-aLsYhRZ6-34" style="edgeStyle=orthogonalEdgeStyle;rounded=0;orthogonalLoop=1;jettySize=auto;html=1;entryX=0;entryY=0.5;entryDx=0;entryDy=0;" edge="1" parent="1" source="gCFO4Be3ib_-aLsYhRZ6-19" target="gCFO4Be3ib_-aLsYhRZ6-33">
          <mxGeometry relative="1" as="geometry" />
        </mxCell>
        <mxCell id="gCFO4Be3ib_-aLsYhRZ6-35" value="creates" style="edgeLabel;html=1;align=center;verticalAlign=middle;resizable=0;points=[];" vertex="1" connectable="0" parent="gCFO4Be3ib_-aLsYhRZ6-34">
          <mxGeometry x="-0.2" relative="1" as="geometry">
            <mxPoint as="offset" />
          </mxGeometry>
        </mxCell>
        <mxCell id="gCFO4Be3ib_-aLsYhRZ6-19" value="Runner" style="whiteSpace=wrap;html=1;" vertex="1" parent="1">
          <mxGeometry x="945" y="-145" width="120" height="60" as="geometry" />
        </mxCell>
        <mxCell id="gCFO4Be3ib_-aLsYhRZ6-21" style="edgeStyle=orthogonalEdgeStyle;rounded=0;orthogonalLoop=1;jettySize=auto;html=1;" edge="1" parent="1" source="gCFO4Be3ib_-aLsYhRZ6-20" target="gCFO4Be3ib_-aLsYhRZ6-19">
          <mxGeometry relative="1" as="geometry" />
        </mxCell>
        <mxCell id="gCFO4Be3ib_-aLsYhRZ6-23" value="Run by" style="edgeLabel;html=1;align=center;verticalAlign=middle;resizable=0;points=[];" vertex="1" connectable="0" parent="gCFO4Be3ib_-aLsYhRZ6-21">
          <mxGeometry x="-0.4419" y="2" relative="1" as="geometry">
            <mxPoint x="6" y="2" as="offset" />
          </mxGeometry>
        </mxCell>
        <mxCell id="gCFO4Be3ib_-aLsYhRZ6-20" value="" style="shape=requiredInterface;html=1;verticalLabelPosition=bottom;sketch=0;" vertex="1" parent="1">
          <mxGeometry x="885" y="-190" width="10" height="150" as="geometry" />
        </mxCell>
        <mxCell id="gCFO4Be3ib_-aLsYhRZ6-25" value="" style="endArrow=classic;html=1;rounded=0;exitX=0.5;exitY=1;exitDx=0;exitDy=0;entryX=0.5;entryY=0;entryDx=0;entryDy=0;" edge="1" parent="1" source="gCFO4Be3ib_-aLsYhRZ6-19" target="gCFO4Be3ib_-aLsYhRZ6-7">
          <mxGeometry width="50" height="50" relative="1" as="geometry">
            <mxPoint x="955" y="-90" as="sourcePoint" />
            <mxPoint x="1005" y="-140" as="targetPoint" />
          </mxGeometry>
        </mxCell>
        <mxCell id="gCFO4Be3ib_-aLsYhRZ6-26" value="creates" style="edgeLabel;html=1;align=center;verticalAlign=middle;resizable=0;points=[];" vertex="1" connectable="0" parent="gCFO4Be3ib_-aLsYhRZ6-25">
          <mxGeometry x="0.2606" y="-6" relative="1" as="geometry">
            <mxPoint x="6" y="-10" as="offset" />
          </mxGeometry>
        </mxCell>
        <mxCell id="gCFO4Be3ib_-aLsYhRZ6-27" value="&lt;p style=&quot;margin:0px;margin-top:4px;text-align:center;&quot;&gt;&lt;b&gt;Client&lt;/b&gt;&lt;/p&gt;" style="verticalAlign=top;align=left;overflow=fill;html=1;whiteSpace=wrap;" vertex="1" parent="1">
          <mxGeometry x="1115" y="-30" width="140" height="45" as="geometry" />
        </mxCell>
        <mxCell id="gCFO4Be3ib_-aLsYhRZ6-28" value="&lt;p style=&quot;margin:0px;margin-top:4px;text-align:center;&quot;&gt;&lt;b&gt;Client&lt;/b&gt;&lt;/p&gt;" style="verticalAlign=top;align=left;overflow=fill;html=1;whiteSpace=wrap;" vertex="1" parent="1">
          <mxGeometry x="1125" y="-20" width="140" height="45" as="geometry" />
        </mxCell>
        <mxCell id="gCFO4Be3ib_-aLsYhRZ6-32" value="&lt;p style=&quot;margin:0px;margin-top:4px;text-align:center;&quot;&gt;&lt;b&gt;Client&lt;/b&gt;&lt;/p&gt;" style="verticalAlign=top;align=left;overflow=fill;html=1;whiteSpace=wrap;" vertex="1" parent="1">
          <mxGeometry x="1125" y="-20" width="140" height="45" as="geometry" />
        </mxCell>
        <mxCell id="gCFO4Be3ib_-aLsYhRZ6-38" style="edgeStyle=orthogonalEdgeStyle;rounded=0;orthogonalLoop=1;jettySize=auto;html=1;entryX=0;entryY=0.5;entryDx=0;entryDy=0;" edge="1" parent="1" source="gCFO4Be3ib_-aLsYhRZ6-33" target="gCFO4Be3ib_-aLsYhRZ6-36">
          <mxGeometry relative="1" as="geometry" />
        </mxCell>
        <mxCell id="gCFO4Be3ib_-aLsYhRZ6-39" value="creates" style="edgeLabel;html=1;align=center;verticalAlign=middle;resizable=0;points=[];" vertex="1" connectable="0" parent="gCFO4Be3ib_-aLsYhRZ6-38">
          <mxGeometry x="0.169" y="6" relative="1" as="geometry">
            <mxPoint as="offset" />
          </mxGeometry>
        </mxCell>
        <mxCell id="gCFO4Be3ib_-aLsYhRZ6-33" value="&lt;p style=&quot;margin:0px;margin-top:4px;text-align:center;&quot;&gt;&lt;b&gt;Monitor&lt;/b&gt;&lt;/p&gt;" style="verticalAlign=top;align=left;overflow=fill;html=1;whiteSpace=wrap;" vertex="1" parent="1">
          <mxGeometry x="1145" y="-137.5" width="140" height="45" as="geometry" />
        </mxCell>
        <mxCell id="gCFO4Be3ib_-aLsYhRZ6-36" value="&lt;p style=&quot;margin:0px;margin-top:4px;text-align:center;&quot;&gt;&lt;b&gt;Log&lt;/b&gt;&lt;/p&gt;" style="verticalAlign=top;align=left;overflow=fill;html=1;whiteSpace=wrap;" vertex="1" parent="1">
          <mxGeometry x="1345" y="-137.5" width="50" height="45" as="geometry" />
        </mxCell>
        <mxCell id="gCFO4Be3ib_-aLsYhRZ6-37" value="&lt;p style=&quot;margin:0px;margin-top:4px;text-align:center;&quot;&gt;&lt;b&gt;Log&lt;/b&gt;&lt;/p&gt;" style="verticalAlign=top;align=left;overflow=fill;html=1;whiteSpace=wrap;" vertex="1" parent="1">
          <mxGeometry x="1355" y="-120" width="50" height="37.5" as="geometry" />
        </mxCell>
        <mxCell id="gCFO4Be3ib_-aLsYhRZ6-40" value="" style="whiteSpace=wrap;html=1;dashed=1;" vertex="1" parent="1">
          <mxGeometry x="720" y="300" width="320" height="150" as="geometry" />
        </mxCell>
        <mxCell id="gCFO4Be3ib_-aLsYhRZ6-41" value="middle end" style="text;html=1;align=center;verticalAlign=middle;resizable=0;points=[];autosize=1;strokeColor=none;fillColor=none;" vertex="1" parent="1">
          <mxGeometry x="710" y="270" width="80" height="30" as="geometry" />
        </mxCell>
        <mxCell id="gCFO4Be3ib_-aLsYhRZ6-44" style="edgeStyle=orthogonalEdgeStyle;rounded=0;orthogonalLoop=1;jettySize=auto;html=1;entryX=0;entryY=0.5;entryDx=0;entryDy=0;" edge="1" parent="1" source="gCFO4Be3ib_-aLsYhRZ6-42" target="gCFO4Be3ib_-aLsYhRZ6-43">
          <mxGeometry relative="1" as="geometry" />
        </mxCell>
        <mxCell id="gCFO4Be3ib_-aLsYhRZ6-42" value="Parser" style="whiteSpace=wrap;html=1;" vertex="1" parent="1">
          <mxGeometry x="740" y="340" width="110" height="60" as="geometry" />
        </mxCell>
        <mxCell id="gCFO4Be3ib_-aLsYhRZ6-43" value="Scheduler" style="whiteSpace=wrap;html=1;" vertex="1" parent="1">
          <mxGeometry x="890" y="340" width="120" height="60" as="geometry" />
        </mxCell>
        <mxCell id="gCFO4Be3ib_-aLsYhRZ6-45" value="" style="whiteSpace=wrap;html=1;dashed=1;" vertex="1" parent="1">
          <mxGeometry x="1130" y="300" width="880" height="300" as="geometry" />
        </mxCell>
        <mxCell id="gCFO4Be3ib_-aLsYhRZ6-46" value="backend" style="text;html=1;align=center;verticalAlign=middle;resizable=0;points=[];autosize=1;strokeColor=none;fillColor=none;" vertex="1" parent="1">
          <mxGeometry x="1125" y="270" width="70" height="30" as="geometry" />
        </mxCell>
        <mxCell id="gCFO4Be3ib_-aLsYhRZ6-50" value="" style="whiteSpace=wrap;html=1;dashed=1;" vertex="1" parent="1">
          <mxGeometry x="1190" y="350" width="210" height="180" as="geometry" />
        </mxCell>
        <mxCell id="gCFO4Be3ib_-aLsYhRZ6-51" value="server" style="text;html=1;align=center;verticalAlign=middle;resizable=0;points=[];autosize=1;strokeColor=none;fillColor=none;" vertex="1" parent="1">
          <mxGeometry x="1180" y="320" width="60" height="30" as="geometry" />
        </mxCell>
        <mxCell id="gCFO4Be3ib_-aLsYhRZ6-52" value="&lt;p style=&quot;margin:0px;margin-top:4px;text-align:center;&quot;&gt;&lt;b&gt;Service&lt;/b&gt;&lt;/p&gt;" style="verticalAlign=top;align=left;overflow=fill;html=1;whiteSpace=wrap;" vertex="1" parent="1">
          <mxGeometry x="1220" y="370" width="110" height="80" as="geometry" />
        </mxCell>
        <mxCell id="gCFO4Be3ib_-aLsYhRZ6-53" value="" style="whiteSpace=wrap;html=1;dashed=1;" vertex="1" parent="1">
          <mxGeometry x="1480" y="350" width="210" height="180" as="geometry" />
        </mxCell>
        <mxCell id="gCFO4Be3ib_-aLsYhRZ6-54" value="client" style="text;html=1;align=center;verticalAlign=middle;resizable=0;points=[];autosize=1;strokeColor=none;fillColor=none;" vertex="1" parent="1">
          <mxGeometry x="1475" y="320" width="50" height="30" as="geometry" />
        </mxCell>
        <mxCell id="gCFO4Be3ib_-aLsYhRZ6-56" value="&lt;p style=&quot;margin:0px;margin-top:4px;text-align:center;&quot;&gt;&lt;b&gt;Client&lt;/b&gt;&lt;/p&gt;" style="verticalAlign=top;align=left;overflow=fill;html=1;whiteSpace=wrap;" vertex="1" parent="1">
          <mxGeometry x="1510" y="370" width="110" height="80" as="geometry" />
        </mxCell>
        <mxCell id="gCFO4Be3ib_-aLsYhRZ6-57" value="" style="whiteSpace=wrap;html=1;dashed=1;" vertex="1" parent="1">
          <mxGeometry x="1745" y="350" width="205" height="230" as="geometry" />
        </mxCell>
        <mxCell id="gCFO4Be3ib_-aLsYhRZ6-58" value="Monitor" style="text;html=1;align=center;verticalAlign=middle;resizable=0;points=[];autosize=1;strokeColor=none;fillColor=none;" vertex="1" parent="1">
          <mxGeometry x="1735" y="320" width="60" height="30" as="geometry" />
        </mxCell>
        <mxCell id="gCFO4Be3ib_-aLsYhRZ6-59" value="&lt;p style=&quot;margin:0px;margin-top:4px;text-align:center;&quot;&gt;&lt;b&gt;Monitor&lt;/b&gt;&lt;/p&gt;" style="verticalAlign=top;align=left;overflow=fill;html=1;whiteSpace=wrap;" vertex="1" parent="1">
          <mxGeometry x="1775" y="370" width="110" height="80" as="geometry" />
        </mxCell>
        <mxCell id="gCFO4Be3ib_-aLsYhRZ6-60" value="&lt;p style=&quot;margin:0px;margin-top:4px;text-align:center;&quot;&gt;&lt;b&gt;Log&lt;/b&gt;&lt;/p&gt;" style="verticalAlign=top;align=left;overflow=fill;html=1;whiteSpace=wrap;" vertex="1" parent="1">
          <mxGeometry x="1775" y="470" width="110" height="80" as="geometry" />
        </mxCell>
        <mxCell id="gCFO4Be3ib_-aLsYhRZ6-62" value="daemon" style="text;html=1;align=center;verticalAlign=middle;resizable=0;points=[];autosize=1;strokeColor=none;fillColor=none;" vertex="1" parent="1">
          <mxGeometry x="670" y="220" width="70" height="30" as="geometry" />
        </mxCell>
        <mxCell id="gCFO4Be3ib_-aLsYhRZ6-70" style="edgeStyle=orthogonalEdgeStyle;rounded=0;orthogonalLoop=1;jettySize=auto;html=1;entryX=0;entryY=0.5;entryDx=0;entryDy=0;" edge="1" parent="1" source="gCFO4Be3ib_-aLsYhRZ6-66" target="gCFO4Be3ib_-aLsYhRZ6-61">
          <mxGeometry relative="1" as="geometry" />
        </mxCell>
        <mxCell id="gCFO4Be3ib_-aLsYhRZ6-71" value="send commands" style="edgeLabel;html=1;align=center;verticalAlign=middle;resizable=0;points=[];" vertex="1" connectable="0" parent="gCFO4Be3ib_-aLsYhRZ6-70">
          <mxGeometry x="-0.1467" y="-3" relative="1" as="geometry">
            <mxPoint x="-1" as="offset" />
          </mxGeometry>
        </mxCell>
        <mxCell id="gCFO4Be3ib_-aLsYhRZ6-66" value="" style="whiteSpace=wrap;html=1;dashed=1;" vertex="1" parent="1">
          <mxGeometry x="127.5" y="250" width="405" height="380" as="geometry" />
        </mxCell>
        <mxCell id="gCFO4Be3ib_-aLsYhRZ6-67" value="user-client" style="text;html=1;align=center;verticalAlign=middle;resizable=0;points=[];autosize=1;strokeColor=none;fillColor=none;" vertex="1" parent="1">
          <mxGeometry x="130" y="220" width="80" height="30" as="geometry" />
        </mxCell>
        <mxCell id="gCFO4Be3ib_-aLsYhRZ6-68" value="CLI" style="whiteSpace=wrap;html=1;" vertex="1" parent="1">
          <mxGeometry x="230" y="305" width="110" height="60" as="geometry" />
        </mxCell>
        <mxCell id="gCFO4Be3ib_-aLsYhRZ6-69" value="WEB" style="whiteSpace=wrap;html=1;" vertex="1" parent="1">
          <mxGeometry x="230" y="390" width="110" height="60" as="geometry" />
        </mxCell>
      </root>
    </mxGraphModel>
  </diagram>
</mxfile>
